<svg id="Capa_1" data-name="Capa 1" xmlns="http://www.w3.org/2000/svg" xmlns:xlink="http://www.w3.org/1999/xlink" viewBox="0 0 1809.49 679.34"><defs><style>.cls-1{fill:#1d1d1b;}.cls-2{fill:#fff;}.cls-3{mask:url(#mask);}.cls-4{filter:url(#luminosity-invert);}</style><filter id="luminosity-invert" filterUnits="userSpaceOnUse" color-interpolation-filters="sRGB"><feColorMatrix values="-1 0 0 0 1 0 -1 0 0 1 0 0 -1 0 1 0 0 0 1 0"/></filter><mask id="mask" x="-120.85" y="0" width="2073.7" height="953.23" maskUnits="userSpaceOnUse"><g class="cls-4"><g transform="translate(-30.72 -38.24)"><path class="cls-1" d="M-75.84,206.78S48.43,338.05,348.09,342.43C663,347,786.36,243.06,1163.54,273.74c231.47,18.83,358.78,92.16,358.78,92.16l461.26,155.38-18.87,470.19L-90.13,959.16Z"/></g></g></mask></defs><path class="cls-2" d="M1719.37,114.51h-9.62V143H1720c14.33,0,21.58-5,21.58-14.44C1741.58,118.72,1734.8,114.51,1719.37,114.51Z" transform="translate(-30.72 -38.24)"/><path class="cls-2" d="M1614.37,38.24V264h128.57l-.06,1c-1.12,16.46-6.56,30.68-16.41,42.83s-27.69,24.18-53.76,36.39l52.44,60.19q62.94-27.42,89-63.71c17.14-24.05,25.84-56.73,26-97.83V38.24Zm128.81,185.44c-1.92-6.38-2.79-10.43-4.49-23.93-2.85-21.4-6.5-25.64-22.69-25.64h-6.25v49.57h-42.82v-145h60.86c20,0,30.94,2.6,40.26,10,9.67,7.3,14.67,18.31,14.67,31.35,0,20.12-11.28,32.28-33.22,35.75,20.66.79,28.22,8.47,31.23,32.44l2,14.06c.88,7.16,1.94,12,4.94,21.42Z" transform="translate(-30.72 -38.24)"/><path class="cls-2" d="M37.22,676.59c3,11.68,9.81,16.78,22,16.78,9.6,0,15.35-6,15.35-15.29,0-20.6-41.68-12.53-41.68-37.91,0-11.36,7.89-19.85,22.17-19.85,12.16,0,21.11,6.58,24.63,18.37l-6.08,1.8C70.8,632,64.83,626.05,55,626.05c-9,0-15.13,5.1-15.13,14.12,0,5.21,1.49,8.92,15.67,14.23,21.64,8.07,26,13.38,26,24.42,0,13.07-11,20.29-23.45,20.29-14.71,0-23.13-6.48-27.4-20.5Z" transform="translate(-30.72 -38.24)"/><path class="cls-2" d="M95.33,698V621.38h6.39v30.16c6-6.16,10.87-9.77,19-9.77,11.51,0,16.41,6.58,16.41,18.58V698h-6.39V661c0-9.14-2.78-14.13-11.3-14.13-6.83,0-10.66,4.14-17.7,10.51V698Z" transform="translate(-30.72 -38.24)"/><path class="cls-2" d="M184.87,698l-.85-6.69c-6.61,5.21-11.62,7.76-20.14,7.76s-15.25-5.31-15.25-14.44c0-15.08,12.37-17.85,35.5-22.94v-3.82c0-7.33-3.2-11-12.69-11-6.6,0-12,3.61-16.09,10l-4.27-2.54c4.8-8.92,11.62-12.53,20.58-12.53,12.58,0,18.54,5.09,18.54,17.3V688a61,61,0,0,0,.86,10.08Zm-1.06-31.22C158.44,672.35,155,677.55,155,684.56c0,6.05,4.16,9.45,9.91,9.45,6,0,13.33-3.51,18.87-9.13Z" transform="translate(-30.72 -38.24)"/><path class="cls-2" d="M209,642.83h6.4v8.49h.21c4.37-6.37,9.6-9.55,16.74-9.55,14.39,0,22.27,13.8,22.27,29,0,19.22-9,28.36-21.85,28.36-7.46,0-11.94-2.55-17.37-8.29v26.76H209Zm6.4,41.3c2.13,3.72,9.38,9.88,15.67,9.88,11.51,0,17.16-9.13,17.16-24.42,0-11.47-5.12-22.73-16.2-22.73-7,0-11.2,4.36-16.63,10.09Z" transform="translate(-30.72 -38.24)"/><path class="cls-2" d="M267.08,630.72v-9.34h6.39v9.34ZM273.47,698h-6.39V642.83h6.39Z" transform="translate(-30.72 -38.24)"/><path class="cls-2" d="M290.85,698V642.83h6.39v8.71c6-6.16,10.88-9.77,19-9.77,11.51,0,16.41,6.58,16.41,18.58V698h-6.39V661c0-9.14-2.77-14.13-11.3-14.13-6.82,0-10.66,4.14-17.7,10.51V698Z" transform="translate(-30.72 -38.24)"/><path class="cls-2" d="M392.66,646.44c-2.88,0-6.61.32-8.85,2.55,2.45,3,3.94,6.26,3.94,11.57,0,13.59-9.7,19.33-21.42,19.33a26,26,0,0,1-9-1.7c-3.51,1.27-5.11,3.29-5.11,5.31,0,3.18,2.13,4.77,17.16,4.77,16.63,0,23.56,5.31,23.56,14.34,0,8.07-6.19,15-25.27,15s-24.19-6.48-24.19-13.06c0-4.78,1.91-8.81,9.7-11.68v-.21c-4.06-.85-7.36-2.55-7.36-7.22s4.26-8.5,8.32-9.35a17.46,17.46,0,0,1-8-14.44c0-12.1,8.53-19.85,22-19.85a22.32,22.32,0,0,1,12.9,3.82,16.23,16.23,0,0,1,11.62-4.89Zm-42.75,56.91c0,5.42,5.33,9.13,16.84,9.13,13.86,0,19.83-3.71,19.83-9.45,0-4.56-3.62-9-20.25-9C353.75,694,349.91,698.57,349.91,703.35ZM367,674.79c8.95,0,14.39-4.25,14.39-13.8s-5.44-14.13-14.39-14.13-14.39,5.52-14.39,14.13C352.58,670.54,359.19,674.79,367,674.79Z" transform="translate(-30.72 -38.24)"/><path class="cls-2" d="M435,698V621.38H478.9v5.73H442v28.25h26.54v5.73H442v31.22h38.91V698Z" transform="translate(-30.72 -38.24)"/><path class="cls-2" d="M492.34,698V642.83h6.4v8.71c6-6.16,10.87-9.77,19-9.77,11.51,0,16.42,6.58,16.42,18.58V698h-6.4V661c0-9.14-2.77-14.13-11.3-14.13-6.82,0-10.66,4.14-17.69,10.51V698Z" transform="translate(-30.72 -38.24)"/><path class="cls-2" d="M553.11,670.65c0,12.53,5.22,23.36,17.8,23.36,7.14,0,10.66-2.44,16.2-11.15l5.23,2.76c-6,9.77-11.41,13.49-22,13.49-14.5,0-23.67-9.24-23.67-28.67,0-17.1,8.75-28.67,22.82-28.67,15,0,22.17,11.78,22.17,28.88Zm32.19-5.1c-1.28-11.36-6.29-18.58-16-18.69-11.3-.1-16.09,11.37-16.2,18.69Z" transform="translate(-30.72 -38.24)"/><path class="cls-2" d="M604.5,698V642.83h6.39v10.51h.21c3-6.79,9-11.57,16-11.57H630v6.15h-2.88c-7,0-16.2,8.29-16.2,18.9V698Z" transform="translate(-30.72 -38.24)"/><path class="cls-2" d="M683,646.44c-2.87,0-6.6.32-8.84,2.55,2.45,3,3.94,6.26,3.94,11.57,0,13.59-9.7,19.33-21.43,19.33a26,26,0,0,1-9-1.7c-3.52,1.27-5.12,3.29-5.12,5.31,0,3.18,2.14,4.77,17.17,4.77,16.63,0,23.55,5.31,23.55,14.34,0,8.07-6.18,15-25.26,15s-24.2-6.48-24.2-13.06c0-4.78,1.92-8.81,9.7-11.68v-.21c-4-.85-7.35-2.55-7.35-7.22s4.26-8.5,8.31-9.35a17.47,17.47,0,0,1-8-14.44c0-12.1,8.53-19.85,22-19.85a22.32,22.32,0,0,1,12.9,3.82A16.2,16.2,0,0,1,683,640.7Zm-42.74,56.91c0,5.42,5.33,9.13,16.84,9.13,13.86,0,19.83-3.71,19.83-9.45,0-4.56-3.63-9-20.26-9C644.05,694,640.21,698.57,640.21,703.35Zm17-28.56c9,0,14.4-4.25,14.4-13.8s-5.44-14.13-14.4-14.13-14.39,5.52-14.39,14.13C642.87,670.54,649.48,674.79,657.26,674.79Z" transform="translate(-30.72 -38.24)"/><path class="cls-2" d="M708.54,687.74h.22l15.45-44.91H731L710.36,702c-3.73,10.83-7.68,15.61-17.7,15.61a20.92,20.92,0,0,1-6-.64v-5.2a51.22,51.22,0,0,0,6.4.74c4.48,0,9.38-3.92,12.47-15.29l-19.29-54.36h7Z" transform="translate(-30.72 -38.24)"/><path class="cls-2" d="M778.59,647.92V698h-6.4V647.92H763v-5.09h9.17V635c0-9.56,3.84-14.65,13.32-14.65a38,38,0,0,1,6.93.85v5.31a19.89,19.89,0,0,0-6.29-1.07c-5,0-7.56,2.45-7.56,8.82v8.6h11.3v5.09Z" transform="translate(-30.72 -38.24)"/><path class="cls-2" d="M841.06,670.44c0,15-5.55,28.67-22.82,28.67s-22.81-13.7-22.81-28.67,5.55-28.67,22.81-28.67S841.06,655.46,841.06,670.44Zm-39.23,0c0,15,5,23.57,16.41,23.57s16.42-8.6,16.42-23.57-5-23.58-16.42-23.58S801.83,655.46,801.83,670.44Z" transform="translate(-30.72 -38.24)"/><path class="cls-2" d="M853.21,698V642.83h6.4v10.51h.21c3-6.79,9-11.57,16-11.57h2.88v6.15h-2.88c-7,0-16.2,8.29-16.2,18.9V698Z" transform="translate(-30.72 -38.24)"/><path class="cls-2" d="M949.05,698l-.85-6.69c-6.61,5.21-11.62,7.76-20.15,7.76s-15.24-5.31-15.24-14.44c0-15.08,12.36-17.85,35.49-22.94v-3.82c0-7.33-3.19-11-12.68-11-6.61,0-12,3.61-16.1,10l-4.26-2.54c4.8-8.92,11.62-12.53,20.57-12.53,12.58,0,18.55,5.09,18.55,17.3V688a60.91,60.91,0,0,0,.85,10.08ZM948,666.82c-25.37,5.53-28.79,10.73-28.79,17.74,0,6.05,4.16,9.45,9.92,9.45,6,0,13.32-3.51,18.87-9.13Z" transform="translate(-30.72 -38.24)"/><path class="cls-2" d="M1002.89,676.59c3,11.68,9.81,16.78,22,16.78,9.6,0,15.35-6,15.35-15.29,0-20.6-41.68-12.53-41.68-37.91,0-11.36,7.89-19.85,22.18-19.85,12.15,0,21.1,6.58,24.62,18.37l-6.08,1.8c-2.77-8.49-8.74-14.44-18.54-14.44-9,0-15.14,5.1-15.14,14.12,0,5.21,1.49,8.92,15.67,14.23,21.64,8.07,26,13.38,26,24.42,0,13.07-11,20.29-23.45,20.29-14.71,0-23.13-6.48-27.4-20.5Z" transform="translate(-30.72 -38.24)"/><path class="cls-2" d="M1102.78,642.83V698h-6.39v-8.7c-6,6.15-10.88,9.77-19,9.77-11.51,0-16.42-6.59-16.42-18.59V642.83h6.4v37.06c0,9.13,2.77,14.12,11.3,14.12,6.82,0,10.66-4.14,17.7-10.51V642.83Z" transform="translate(-30.72 -38.24)"/><path class="cls-2" d="M1118.88,684.67c5.23,7.43,9.92,9.34,17.17,9.34,7,0,12.36-4.57,12.36-10.51,0-16-32.62-7-32.62-26.66,0-10.4,8.21-15.07,17.59-15.07s15.14,3.61,19.08,10l-4.9,3.39c-3.73-5.09-7.78-8.28-14.39-8.28-6.18,0-11,3-11,9.67,0,13.48,32.62,5.52,32.62,27,0,9.87-9.17,15.61-19.19,15.61-8.53,0-16.2-3.4-21.42-11.15Z" transform="translate(-30.72 -38.24)"/><path class="cls-2" d="M1168.24,642.83V624.78h6.4v18.05h12.15v5.09h-12.15v40.46c0,3.72,1.7,5.63,5.65,5.63a22.51,22.51,0,0,0,6.5-1.17v5.31a45.52,45.52,0,0,1-6.5,1c-9.06,0-12-3-12-9.67V647.92h-8.31v-5.09Z" transform="translate(-30.72 -38.24)"/><path class="cls-2" d="M1227.51,698l-.85-6.69c-6.61,5.21-11.62,7.76-20.15,7.76s-15.24-5.31-15.24-14.44c0-15.08,12.37-17.85,35.5-22.94v-3.82c0-7.33-3.2-11-12.69-11-6.61,0-12,3.61-16.09,10l-4.27-2.54c4.8-8.92,11.62-12.53,20.57-12.53,12.58,0,18.55,5.09,18.55,17.3V688a61,61,0,0,0,.86,10.08Zm-1.06-31.22c-25.37,5.53-28.78,10.73-28.78,17.74,0,6.05,4.15,9.45,9.91,9.45,6,0,13.32-3.51,18.87-9.13Z" transform="translate(-30.72 -38.24)"/><path class="cls-2" d="M1250.44,630.72v-9.34h6.39v9.34Zm6.39,67.32h-6.39V642.83h6.39Z" transform="translate(-30.72 -38.24)"/><path class="cls-2" d="M1274.21,698V642.83h6.4v8.71c6-6.16,10.87-9.77,19-9.77,11.52,0,16.42,6.58,16.42,18.58V698h-6.4V661c0-9.14-2.77-14.13-11.3-14.13-6.82,0-10.66,4.14-17.69,10.51V698Z" transform="translate(-30.72 -38.24)"/><path class="cls-2" d="M1363.76,698l-.85-6.69c-6.61,5.21-11.62,7.76-20.15,7.76s-15.24-5.31-15.24-14.44c0-15.08,12.36-17.85,35.49-22.94v-3.82c0-7.33-3.19-11-12.68-11-6.61,0-12,3.61-16.1,10L1330,654.3c4.8-8.92,11.62-12.53,20.57-12.53,12.58,0,18.55,5.09,18.55,17.3V688a60.91,60.91,0,0,0,.85,10.08Zm-1.07-31.22c-25.37,5.53-28.78,10.73-28.78,17.74,0,6.05,4.16,9.45,9.92,9.45,6,0,13.32-3.51,18.86-9.13Z" transform="translate(-30.72 -38.24)"/><path class="cls-2" d="M1387.86,621.38h6.39v28.67c5.44-5.73,9.92-8.28,17.38-8.28,12.9,0,21.85,12.1,21.85,28.35,0,18.79-7.89,29-22.28,29-7.56,0-13.75-2.55-17.8-8.29l-1.06,7.22h-4.48Zm6.39,62.54c4.16,5.74,8.75,10.09,16.63,10.09,11.09,0,16.21-10,16.21-22.73,0-14.33-5.65-24.42-17.17-24.42-6.28,0-13.53,6.16-15.67,9.88Z" transform="translate(-30.72 -38.24)"/><path class="cls-2" d="M1446,621.38h6.4V698H1446Z" transform="translate(-30.72 -38.24)"/><path class="cls-2" d="M1471.23,670.65c0,12.53,5.22,23.36,17.8,23.36,7.14,0,10.66-2.44,16.2-11.15l5.22,2.76c-6,9.77-11.4,13.49-22,13.49-14.49,0-23.66-9.24-23.66-28.67,0-17.1,8.74-28.67,22.81-28.67,15,0,22.17,11.78,22.17,28.88Zm32.19-5.1c-1.28-11.36-6.29-18.58-16-18.69-11.3-.1-16.1,11.37-16.2,18.69Z" transform="translate(-30.72 -38.24)"/><path class="cls-2" d="M1554.6,698V621.38h45.19v5.73h-38.16v28.25h27.82v5.73h-27.82V698Z" transform="translate(-30.72 -38.24)"/><path class="cls-2" d="M1653.74,642.83V698h-6.4v-8.7c-6,6.15-10.87,9.77-19,9.77-11.52,0-16.42-6.59-16.42-18.59V642.83h6.4v37.06c0,9.13,2.77,14.12,11.3,14.12,6.82,0,10.66-4.14,17.69-10.51V642.83Z" transform="translate(-30.72 -38.24)"/><path class="cls-2" d="M1671.86,642.83V624.78h6.4v18.05h12.15v5.09h-12.15v40.46c0,3.72,1.71,5.63,5.65,5.63a22.51,22.51,0,0,0,6.5-1.17v5.31a45.52,45.52,0,0,1-6.5,1c-9.06,0-12.05-3-12.05-9.67V647.92h-8.31v-5.09Z" transform="translate(-30.72 -38.24)"/><path class="cls-2" d="M1742.65,642.83V698h-6.4v-8.7c-6,6.15-10.87,9.77-19,9.77-11.51,0-16.42-6.59-16.42-18.59V642.83h6.4v37.06c0,9.13,2.77,14.12,11.3,14.12,6.82,0,10.66-4.14,17.69-10.51V642.83Z" transform="translate(-30.72 -38.24)"/><path class="cls-2" d="M1759.71,698V642.83h6.4v10.51h.21c3-6.79,9-11.57,16-11.57h2.88v6.15h-2.88c-7,0-16.2,8.29-16.2,18.9V698Z" transform="translate(-30.72 -38.24)"/><path class="cls-2" d="M1797.13,670.65c0,12.53,5.22,23.36,17.8,23.36,7.14,0,10.66-2.44,16.21-11.15l5.22,2.76c-6,9.77-11.41,13.49-22,13.49-14.5,0-23.66-9.24-23.66-28.67,0-17.1,8.74-28.67,22.81-28.67,15,0,22.17,11.78,22.17,28.88Zm32.19-5.1c-1.28-11.36-6.29-18.58-16-18.69-11.3-.1-16.09,11.37-16.2,18.69Z" transform="translate(-30.72 -38.24)"/><polygon class="cls-2" points="659.32 505.12 1023.64 505.12 1023.64 393.37 787.46 393.37 787.46 309.19 984.91 309.19 984.91 197.43 787.46 197.43 787.46 119.95 1023.64 119.95 1023.64 8.2 659.32 8.2 659.32 505.12"/><path class="cls-2" d="M1343.51,439.06c-81.2,0-138.57-62.58-138.57-143.78,0-82,57.37-143.79,138.57-143.79,47.69,0,90.15,32.78,106.54,72.26l110.27-52.89c-32-64.82-96.86-132.62-216.81-132.62-152.73,0-269,103.56-269,257,0,152.72,116.22,257,269,257,120,0,184.77-70,216.81-133.36L1450.05,366.8C1433.66,406.28,1391.2,439.06,1343.51,439.06Z" transform="translate(-30.72 -38.24)"/><rect class="cls-2" x="2.01" y="8.2" width="128.14" height="496.93"/><path class="cls-2" d="M643,211.83c0-92.38-62.58-165.39-172.84-165.39H221.3V543.37H349.44V376.48H415l83.44,166.89H645.22L543.9,360.84C590.83,344.45,643,298.26,643,211.83Zm-192.21,52.9H349.44V158.19H450.77c34.27,0,61.83,18.63,61.83,52.9C512.6,246.1,485,264.73,450.77,264.73Z" transform="translate(-30.72 -38.24)"/><g class="cls-3"><rect class="cls-2" x="2.01" y="8.2" width="128.14" height="496.93"/><path class="cls-2" d="M643,211.83c0-92.38-62.58-165.39-172.84-165.39H221.3V543.37H349.44V376.48H415l83.44,166.89H645.22L543.9,360.84C590.83,344.45,643,298.26,643,211.83Zm-192.21,52.9H349.44V158.19H450.77c34.27,0,61.83,18.63,61.83,52.9C512.6,246.1,485,264.73,450.77,264.73Z" transform="translate(-30.72 -38.24)"/><polygon class="cls-2" points="659.32 505.12 1023.64 505.12 1023.64 393.37 787.46 393.37 787.46 309.19 984.91 309.19 984.91 197.43 787.46 197.43 787.46 119.95 1023.64 119.95 1023.64 8.2 659.32 8.2 659.32 505.12"/><path class="cls-2" d="M1343.51,439.06c-81.2,0-138.57-62.58-138.57-143.78,0-82,57.37-143.79,138.57-143.79,47.69,0,90.15,32.78,106.54,72.26l110.27-52.89c-32-64.82-96.86-132.62-216.81-132.62-152.73,0-269,103.56-269,257,0,152.72,116.22,257,269,257,120,0,184.77-70,216.81-133.36L1450.05,366.8C1433.66,406.28,1391.2,439.06,1343.51,439.06Z" transform="translate(-30.72 -38.24)"/></g></svg>